<?xml version="1.0" standalone="no"?>
<!DOCTYPE svg PUBLIC "-//W3C//DTD SVG 20010904//EN"
 "http://www.w3.org/TR/2001/REC-SVG-20010904/DTD/svg10.dtd">
<svg version="1.0" xmlns="http://www.w3.org/2000/svg"
 width="670.000000pt" height="670.000000pt" viewBox="0 0 670.000000 670.000000"
 preserveAspectRatio="xMidYMid meet">
<metadata>
Created by potrace 1.14, written by Peter Selinger 2001-2017
</metadata>
<g transform="translate(0.000000,670.000000) scale(0.100000,-0.100000)"
fill="#000000" stroke="none">
<path d="M2905 6664 c-369 -39 -746 -165 -1066 -359 -188 -113 -320 -216 -480
-375 -255 -254 -411 -466 -606 -821 -74 -134 -85 -164 -146 -370 -94 -323
-123 -435 -154 -609 -28 -155 -28 -155 -28 -610 0 -429 2 -469 28 -700 15
-135 52 -391 82 -570 70 -418 134 -642 284 -988 95 -220 104 -236 187 -339
165 -206 249 -278 399 -340 44 -19 94 -40 110 -48 17 -7 66 -21 110 -29 188
-38 406 -112 525 -178 30 -17 115 -68 188 -115 203 -129 299 -164 499 -184 96
-9 124 -9 195 6 140 28 377 130 613 263 178 100 530 335 742 494 l91 69 52
-26 c74 -37 188 -64 304 -71 92 -6 107 -10 166 -44 71 -40 179 -83 250 -99 25
-6 89 -11 143 -11 206 0 360 90 523 305 61 82 127 215 178 364 94 270 144 560
177 1026 14 196 13 1144 -2 1409 -42 770 -153 1263 -389 1725 -137 267 -324
497 -575 706 -82 69 -293 209 -382 254 -76 38 -296 114 -423 146 -117 29 -410
56 -597 55 -87 -1 -164 5 -208 14 -170 36 -285 47 -515 51 -129 1 -253 1 -275
-1z m-38 -184 c21 -11 43 -20 50 -20 24 0 13 -20 -27 -46 -37 -25 -143 -55
-200 -58 -20 -1 -26 4 -28 26 -3 21 -9 27 -30 30 -15 2 -28 10 -30 19 -3 16
12 21 203 62 11 3 21 5 23 6 1 0 19 -8 39 -19z m952 -29 l24 -19 -84 -54 c-46
-30 -90 -62 -98 -71 -15 -19 -57 -22 -81 -7 -12 8 -6 18 34 59 44 45 146 110
171 111 6 0 21 -9 34 -19z m471 -35 c170 -27 271 -59 232 -73 -7 -3 -21 -13
-30 -23 -16 -17 -27 -18 -132 -10 -89 6 -119 5 -133 -5 -17 -12 -27 -8 -85 29
-76 50 -87 66 -44 66 16 0 35 7 42 15 15 18 40 18 150 1z m-675 -172 c281 -38
533 -114 690 -207 144 -85 323 -250 412 -379 126 -183 247 -491 269 -688 8
-67 -2 -59 -40 30 -53 122 -198 394 -261 489 -79 121 -108 148 -275 261 -211
144 -271 175 -415 219 -191 57 -281 72 -555 96 -324 28 -398 20 -583 -59 -58
-25 -124 -50 -148 -56 -98 -27 -174 -84 -357 -269 -141 -143 -256 -334 -302
-502 -29 -107 -90 -495 -97 -614 -11 -195 23 -376 107 -580 84 -201 157 -327
289 -500 59 -77 259 -278 291 -292 109 -49 192 -68 355 -83 61 -6 130 -17 155
-26 25 -9 76 -18 113 -21 61 -5 70 -9 78 -30 13 -35 13 -36 -28 -28 -67 12
-160 6 -215 -15 -70 -26 -108 -25 -168 5 -33 17 -66 25 -99 25 -57 0 -97 13
-127 41 -13 13 -45 23 -84 29 -76 11 -98 25 -152 97 -24 31 -95 103 -158 160
-120 108 -142 138 -235 316 -27 51 -70 115 -103 150 -50 54 -152 202 -152 220
0 4 -13 35 -29 69 -15 35 -32 78 -36 96 -3 18 -14 47 -23 65 -14 27 -16 64
-14 241 5 415 80 737 222 951 26 39 76 120 113 181 102 170 200 284 302 352
22 15 42 30 45 33 8 11 221 117 270 134 25 9 87 27 139 41 52 13 97 27 101 29
4 2 38 9 76 16 163 28 440 29 629 3z m1195 -165 c49 -30 70 -31 70 -3 0 23 26
16 84 -21 82 -52 121 -43 80 19 -10 16 -12 26 -4 31 12 7 50 -3 50 -14 0 -4
13 -6 28 -3 23 3 46 -11 133 -83 120 -100 169 -151 169 -177 0 -10 7 -29 16
-43 14 -22 14 -23 -5 -18 -11 3 -26 11 -32 19 -13 16 -35 18 -44 5 -3 -5 8
-31 25 -57 16 -26 30 -54 30 -61 0 -29 -30 -10 -65 42 -23 33 -46 55 -57 55
-25 0 -23 -17 12 -93 57 -125 30 -131 -71 -14 -124 142 -130 148 -142 144 -6
-2 -14 -14 -17 -28 l-6 -24 -25 27 c-34 37 -54 24 -45 -30 7 -50 -10 -67 -33
-32 -35 53 -59 75 -71 64 -8 -8 -4 -24 15 -61 14 -28 25 -56 25 -62 0 -28 -33
-5 -82 56 -29 37 -90 105 -135 151 -46 45 -83 89 -83 97 0 8 13 15 33 17 28 3
32 6 29 31 -2 23 1 27 23 27 23 0 26 4 25 28 -4 53 1 54 70 11z m-1435 -64
c72 -8 186 -19 255 -25 129 -11 169 -20 230 -51 19 -10 71 -23 115 -29 139
-21 190 -45 370 -180 50 -37 115 -83 145 -102 30 -19 70 -50 89 -69 53 -54
170 -233 159 -244 -2 -2 -54 43 -117 101 -62 58 -143 125 -180 149 -38 24 -97
74 -132 110 -102 106 -150 127 -325 144 -78 7 -114 16 -155 37 -86 43 -144 55
-303 61 -217 8 -316 -6 -496 -74 -265 -100 -541 -293 -656 -457 -113 -164
-142 -225 -149 -318 -2 -35 -11 -81 -19 -103 -8 -22 -15 -55 -16 -73 0 -19 -8
-59 -17 -90 -15 -48 -18 -98 -18 -332 0 -264 1 -277 23 -335 13 -33 44 -118
68 -188 53 -154 71 -191 121 -249 21 -24 77 -95 125 -158 108 -144 165 -199
248 -243 99 -52 203 -69 395 -66 l160 4 7 -60 c4 -32 6 -60 4 -62 -2 -2 -41 5
-87 16 -46 11 -149 27 -229 35 -241 25 -334 67 -464 207 -241 260 -450 639
-512 926 -19 91 -22 246 -5 353 6 41 21 147 32 235 35 267 85 414 196 583 60
90 291 310 376 357 40 22 83 48 98 57 14 10 50 26 80 37 30 10 78 30 106 45
29 14 62 26 73 26 12 0 35 7 53 17 61 31 135 33 352 8z m-1569 -160 c13 -14
29 -22 37 -19 32 12 25 -17 -22 -87 -27 -41 -64 -100 -84 -131 l-36 -57 -48 5
c-26 2 -52 5 -58 6 -5 0 -23 -3 -38 -7 -24 -6 -33 -2 -67 34 -76 80 -65 137
41 206 93 60 97 61 115 39 14 -18 15 -18 30 4 17 23 43 29 60 12 8 -8 15 -6
24 5 16 20 19 19 46 -10z m1909 -2 c28 -9 81 -31 120 -50 48 -23 84 -33 117
-33 146 0 261 -53 365 -170 17 -19 57 -51 87 -70 86 -53 118 -80 259 -213 71
-67 133 -124 138 -125 10 -4 73 -124 90 -170 10 -29 19 -38 -141 140 -148 165
-217 220 -445 357 -44 26 -122 74 -172 105 -107 66 -143 78 -348 107 -192 27
-334 30 -395 7 -63 -24 -151 -44 -247 -58 -84 -11 -142 -37 -306 -136 -91 -56
-243 -209 -325 -327 -82 -120 -125 -230 -141 -367 -6 -47 -16 -125 -22 -175
-6 -49 -11 -121 -11 -160 6 -389 6 -396 36 -484 97 -291 260 -534 456 -682 56
-43 27 -45 -54 -5 -83 41 -147 104 -226 221 -26 38 -82 122 -125 185 -89 131
-104 162 -171 355 l-48 140 -7 210 c-6 187 1 310 18 337 3 5 9 41 14 81 5 42
21 97 39 136 18 38 33 90 37 125 10 99 68 190 128 202 40 7 75 54 75 99 0 31
53 86 104 106 17 7 60 35 95 63 36 28 101 75 145 104 70 46 86 53 121 49 41
-4 94 15 108 39 17 30 88 55 170 61 45 3 91 10 102 14 32 14 303 0 360 -18z
m-133 -169 c46 -13 64 -14 84 -5 14 6 49 11 79 11 42 0 57 -4 67 -19 20 -28
87 -44 126 -30 28 9 40 7 94 -18 35 -17 109 -59 165 -94 57 -35 141 -86 189
-114 150 -87 452 -391 535 -539 l23 -41 -39 32 c-22 18 -53 44 -70 59 -16 14
-52 43 -80 64 -27 21 -80 69 -117 107 -36 38 -79 75 -95 83 -15 8 -52 32 -82
54 -61 44 -136 76 -180 76 -16 0 -85 18 -152 40 -79 26 -141 40 -173 40 -57 0
-302 -27 -314 -34 -4 -2 -54 -14 -112 -26 -182 -38 -268 -75 -386 -166 -27
-20 -71 -47 -98 -60 -50 -23 -106 -70 -106 -89 0 -5 -23 -38 -50 -72 -54 -67
-70 -99 -70 -142 0 -15 -15 -53 -32 -85 -69 -119 -68 -118 -62 -168 4 -26 1
-130 -6 -232 -15 -215 -8 -272 44 -376 19 -36 41 -92 51 -125 25 -88 40 -111
133 -210 47 -49 110 -116 139 -147 55 -57 138 -108 179 -108 28 0 35 -10 27
-38 -4 -18 -13 -22 -50 -22 -66 0 -129 46 -275 201 -193 205 -258 290 -258
335 0 23 -70 166 -95 194 -8 8 -19 36 -26 62 -11 39 -10 54 4 98 21 65 21 110
2 157 -27 65 -30 141 -7 213 11 36 29 115 41 175 12 61 28 124 35 140 65 139
81 167 115 198 22 20 62 42 97 52 102 32 136 54 251 171 113 113 157 145 223
158 161 33 261 43 425 45 175 2 183 1 265 -27 101 -35 338 -135 383 -162 42
-26 59 -25 55 2 -3 26 -63 58 -264 145 -190 83 -291 106 -459 107 -116 1 -171
-5 -325 -32 -118 -21 -200 -41 -225 -54 -67 -37 -378 -239 -415 -270 -46 -40
-99 -109 -100 -130 0 -9 -33 -83 -74 -165 -94 -189 -112 -261 -101 -412 5 -58
8 -119 8 -136 0 -16 -2 -77 -3 -135 -7 -266 88 -447 395 -757 140 -142 167
-173 147 -173 -41 0 -173 76 -245 141 -153 138 -294 363 -363 579 -46 141 -53
195 -55 425 l-2 220 36 87 c29 69 36 98 34 145 -1 51 3 66 31 112 18 29 42 76
53 103 27 69 98 175 150 225 47 45 226 168 324 223 33 18 74 45 91 60 23 20
43 27 80 29 27 1 101 15 164 31 137 34 147 35 222 14z m430 -388 c51 -14 113
-27 138 -31 108 -16 278 -83 334 -133 18 -16 74 -57 124 -92 52 -35 92 -70 92
-79 0 -9 7 -27 16 -39 30 -43 8 -32 -75 39 -119 100 -181 139 -306 191 -118
50 -227 73 -410 88 -123 9 -152 5 -343 -56 -194 -62 -256 -102 -332 -214 -25
-37 -59 -70 -97 -94 -40 -25 -67 -53 -88 -87 -16 -28 -50 -81 -74 -117 -57
-87 -63 -111 -49 -194 10 -61 9 -73 -11 -124 -11 -31 -21 -75 -21 -98 0 -57
28 -240 45 -296 7 -25 25 -87 39 -138 39 -141 97 -219 244 -330 39 -30 72 -58
72 -63 0 -17 -19 -18 -56 -3 -73 30 -129 73 -189 145 -33 40 -86 102 -118 138
-45 51 -62 80 -77 131 -32 110 -49 210 -55 325 -3 61 -9 144 -14 185 -10 76
-15 172 -13 223 1 19 16 40 43 65 31 30 42 47 46 81 5 34 14 49 49 79 24 20
65 65 90 99 51 70 96 109 163 143 24 12 84 55 132 95 91 75 124 91 244 119 39
9 95 23 125 32 54 16 145 30 207 33 17 0 73 -10 125 -23z m11 -121 c61 -10 97
-21 120 -38 61 -46 94 -58 162 -56 77 2 141 -26 238 -106 34 -28 107 -87 162
-132 99 -81 101 -83 184 -230 46 -81 92 -157 102 -168 16 -18 18 -31 12 -88
-3 -37 -9 -67 -12 -67 -3 0 -18 35 -33 78 -15 42 -42 98 -60 123 -18 25 -53
75 -78 110 -59 84 -219 243 -306 304 -96 67 -152 91 -285 120 -63 14 -136 33
-164 42 -31 10 -84 17 -140 17 -89 0 -91 0 -205 -55 -63 -31 -133 -62 -155
-69 -82 -27 -143 -60 -162 -87 -11 -15 -32 -59 -48 -98 -30 -73 -49 -95 -128
-158 -26 -21 -52 -47 -58 -59 -6 -12 -10 -73 -8 -156 2 -165 2 -159 0 -302 -2
-116 10 -192 46 -278 29 -70 95 -197 120 -230 25 -33 26 -82 2 -82 -18 0 -126
88 -162 133 -57 70 -105 151 -126 214 -17 51 -20 88 -22 254 0 135 4 224 15
294 9 55 16 113 16 128 0 16 16 65 35 108 19 44 35 87 35 96 0 32 42 83 84
101 30 14 52 34 76 71 23 36 54 67 100 97 85 55 138 74 206 73 45 -1 58 2 74
21 11 13 20 27 20 32 0 4 26 8 58 8 40 1 70 8 102 25 53 28 67 29 183 10z
m-2675 -50 c6 -30 20 -41 34 -27 22 22 48 14 48 -13 0 -27 26 -35 48 -13 9 9
18 8 38 -2 23 -13 27 -12 35 3 6 9 17 17 26 17 14 0 15 -12 10 -92 -34 -490
-30 -616 23 -783 24 -74 28 -98 20 -120 -8 -21 -15 -26 -38 -23 -38 4 -58 50
-88 205 -24 127 -86 314 -110 334 -15 12 -34 4 -34 -15 0 -7 -9 -21 -20 -31
-21 -19 -19 -21 -35 30 -7 25 -34 17 -41 -12 -3 -16 -18 -54 -32 -85 -32 -74
-58 -79 -68 -13 -3 25 -4 57 -1 72 7 38 -1 53 -31 53 l-25 0 6 93 c8 131 32
242 70 317 28 56 36 65 60 65 20 0 32 9 47 33 23 37 52 40 58 7z m2753 -147
c26 -20 44 -23 127 -24 81 -1 106 -5 152 -26 60 -27 254 -173 310 -233 l35
-37 -30 15 c-16 8 -84 54 -149 101 -80 58 -136 91 -170 100 -28 8 -121 17
-207 20 -146 6 -162 4 -260 -20 -130 -33 -110 -23 -349 -177 l-65 -42 -31 -91
c-17 -50 -55 -140 -85 -200 l-54 -109 1 -105 c2 -161 43 -318 111 -423 18 -28
18 -28 -7 -47 -14 -11 -28 -20 -32 -20 -4 0 -17 19 -29 43 -12 23 -38 60 -60
82 -21 22 -47 61 -58 86 -19 42 -20 56 -12 162 5 68 5 136 -1 166 -7 42 -6 56
8 81 16 26 17 37 5 109 -7 44 -11 91 -7 105 3 13 34 46 70 74 75 59 109 101
126 157 16 52 34 71 88 95 24 11 59 33 77 49 20 17 51 32 77 36 24 4 52 13 63
19 45 29 218 73 293 75 19 1 45 -8 63 -21z m-3041 -77 c0 -22 -13 -95 -30
-163 -16 -67 -30 -134 -30 -148 0 -45 -14 -50 -124 -50 -35 0 -73 16 -62 27 2
2 0 21 -5 41 -7 31 -2 53 33 145 26 69 46 107 55 107 9 0 29 12 46 26 28 23
32 24 43 10 17 -24 34 -19 45 14 15 42 29 37 29 -9z m3797 -53 c36 -35 85 -90
109 -123 42 -57 44 -62 44 -132 0 -40 -4 -73 -10 -73 -5 0 -26 30 -46 68 -20
37 -58 102 -83 145 -25 43 -56 97 -68 120 -40 77 -31 76 54 -5z m-572 -58
c138 -12 169 -20 225 -57 25 -16 97 -64 160 -106 63 -41 134 -96 158 -121 49
-53 97 -149 111 -221 11 -57 6 -71 -9 -29 -31 85 -49 110 -156 210 -133 124
-244 194 -363 231 -79 24 -98 25 -265 24 -100 -1 -198 -5 -219 -10 -106 -25
-299 -218 -343 -344 -25 -70 -43 -176 -49 -292 -6 -109 -3 -135 40 -280 5 -17
0 -23 -28 -33 -18 -7 -39 -12 -45 -12 -17 0 -33 44 -43 122 -5 38 -16 83 -26
100 -12 25 -18 67 -21 176 -4 140 -4 143 21 180 14 20 36 60 47 87 61 145 108
206 184 241 28 13 57 24 65 24 8 0 40 20 72 45 71 56 95 65 172 66 34 0 71 5
82 10 11 5 43 6 70 4 28 -3 100 -10 160 -15z m123 -159 c32 -16 71 -32 87 -35
54 -13 153 -75 227 -144 135 -125 135 -125 163 -219 15 -49 31 -96 36 -106 5
-9 16 -37 24 -61 19 -56 6 -124 -39 -211 l-31 -60 -6 120 c-8 128 -23 211 -60
315 -12 36 -27 77 -32 92 -21 62 -194 187 -335 244 -128 51 -280 37 -431 -39
-100 -50 -154 -96 -215 -181 -58 -81 -83 -145 -95 -243 -5 -43 -14 -99 -20
-124 -7 -30 -7 -66 -1 -105 10 -61 5 -74 -32 -74 -31 0 -61 198 -48 327 10 96
51 205 85 223 13 7 26 23 29 36 4 13 11 24 16 24 5 0 21 22 34 48 37 74 112
152 145 152 29 0 80 14 117 32 12 6 44 8 70 4 27 -3 81 1 119 9 85 16 120 12
193 -24z m1184 -23 c7 -13 13 -47 13 -75 0 -56 14 -72 30 -35 15 34 28 22 53
-49 54 -150 92 -365 92 -520 0 -86 -12 -106 -41 -68 -14 18 -21 21 -30 12 -9
-9 -9 -19 0 -44 12 -35 15 -148 5 -198 -8 -40 -38 -42 -58 -3 -16 31 -44 159
-48 217 -2 28 -8 40 -18 40 -11 0 -16 -15 -18 -63 -3 -53 -6 -63 -20 -60 -11
2 -20 20 -27 53 -18 82 -51 58 -54 -37 -3 -101 -66 -249 -113 -264 -42 -13
-45 2 -40 251 3 130 -1 356 -8 504 -9 205 -9 274 0 291 9 17 14 19 26 9 8 -6
18 -25 22 -42 10 -40 29 -45 42 -12 12 32 32 23 28 -13 -2 -21 1 -27 17 -27
17 0 21 8 25 54 6 61 24 78 34 31 8 -41 30 -34 34 11 1 19 5 40 7 47 7 20 33
14 47 -10z m-1112 -123 c19 -13 60 -35 90 -48 65 -29 150 -89 133 -94 -6 -2
-24 2 -40 10 -40 21 -265 74 -345 82 -79 8 -149 -5 -228 -45 -121 -62 -171
-115 -212 -229 -16 -44 -21 -87 -23 -196 l-4 -140 -34 -3 c-34 -3 -35 -2 -45
45 -6 26 -14 77 -17 112 -6 56 -4 67 18 100 15 21 28 58 32 91 9 75 29 109
101 168 33 28 82 76 109 107 26 31 58 61 69 66 12 5 96 6 191 3 157 -5 173 -7
205 -29z m-1 -141 c24 -13 78 -32 120 -43 103 -25 136 -43 165 -94 32 -54 56
-191 56 -316 -1 -119 -42 -289 -85 -351 -54 -78 -172 -178 -262 -221 -46 -23
-101 -43 -122 -46 l-38 -5 -6 58 c-14 135 -72 248 -178 349 -33 32 -65 69 -70
82 -14 37 -11 132 6 198 51 193 131 258 320 259 108 0 199 -36 272 -107 69
-67 88 -120 80 -231 -13 -213 -119 -319 -300 -304 -191 16 -289 260 -157 395
88 90 265 56 309 -60 38 -100 -39 -237 -133 -237 -69 0 -136 66 -136 133 0 31
47 87 74 87 28 0 64 -22 75 -46 19 -43 -11 -73 -39 -39 -25 30 -57 12 -45 -25
10 -30 58 -52 89 -40 78 29 54 165 -34 191 -65 20 -118 -3 -147 -61 -28 -55
-29 -99 -3 -150 28 -56 80 -92 140 -98 65 -6 93 2 135 40 56 49 79 102 79 178
-1 140 -96 232 -239 233 -135 1 -224 -92 -233 -243 -10 -186 111 -314 298
-314 178 0 275 93 311 300 36 205 -53 354 -253 423 -123 42 -253 34 -367 -23
-101 -52 -161 -170 -168 -333 -3 -57 -6 -103 -8 -103 -1 0 -16 5 -33 11 -50
17 -59 67 -37 205 9 62 23 122 31 135 7 13 23 42 34 64 27 50 116 119 172 133
24 6 77 20 118 31 89 24 146 20 209 -15z m524 -561 c64 -133 92 -235 107 -389
16 -175 -6 -545 -45 -749 -34 -177 -47 -240 -60 -284 -71 -233 -94 -304 -142
-426 -103 -262 -189 -414 -338 -599 -77 -96 -88 -126 -45 -126 11 0 33 11 48
24 136 119 207 174 210 162 4 -19 -89 -203 -138 -274 -102 -149 -359 -350
-880 -687 -324 -211 -451 -274 -627 -316 -177 -42 -398 -17 -558 64 -109 55
-340 240 -460 368 -291 312 -603 912 -729 1400 -58 221 -106 510 -119 709 -8
117 14 554 28 569 20 20 35 4 35 -37 1 -97 65 -261 129 -330 25 -27 31 -42 31
-78 0 -37 3 -44 19 -44 11 0 23 10 28 23 l8 24 53 -23 c30 -14 52 -30 52 -39
0 -18 36 -20 47 -2 5 9 23 12 56 9 l47 -4 0 -44 c0 -35 3 -44 18 -44 35 0 45
15 37 57 l-6 40 43 6 c24 4 53 10 66 13 19 5 22 3 22 -20 0 -28 10 -32 41 -15
16 8 19 17 14 38 -5 24 -1 31 33 54 42 27 118 99 170 160 18 21 36 35 41 32
12 -7 59 -150 63 -190 3 -33 34 -47 49 -23 12 18 11 210 -2 287 -9 56 -23 106
-55 196 -10 29 99 -79 149 -147 46 -63 94 -92 171 -103 29 -4 64 -17 83 -32
24 -19 52 -27 107 -34 41 -4 93 -17 115 -28 53 -27 134 -28 194 -1 69 30 125
35 210 16 59 -13 79 -22 92 -42 24 -37 104 -114 118 -114 7 0 29 -11 48 -24
20 -14 48 -28 63 -32 35 -8 37 -14 27 -70 -10 -53 -2 -74 29 -74 22 0 30 19
30 69 0 21 2 40 4 42 3 3 24 3 47 1 l41 -4 -4 -59 c-5 -66 10 -92 40 -72 13 8
17 25 17 74 0 63 0 63 32 70 31 6 31 6 45 -50 10 -45 17 -56 33 -56 16 0 20 7
20 35 -1 19 -4 49 -8 66 -7 29 -6 33 25 45 18 7 36 14 40 16 4 3 15 -21 24
-52 17 -54 43 -83 64 -70 15 9 12 42 -9 83 -34 67 -34 76 -2 100 l30 22 22
-46 c18 -34 28 -44 43 -42 32 5 30 33 -4 83 -30 44 -31 47 -16 70 16 24 36 33
36 17 0 -12 39 -52 50 -52 5 0 14 9 20 20 9 16 5 26 -23 56 l-33 36 23 67 c12
36 23 80 23 96 0 42 9 51 55 59 76 13 170 56 240 109 71 54 168 161 195 213 8
16 22 41 32 55 33 49 98 188 98 209 0 21 18 49 33 50 4 0 22 -30 40 -67z
m-3919 6 c36 -39 43 -68 20 -76 -22 -7 -101 87 -89 107 12 19 33 10 69 -31z
m909 -102 c44 -65 78 -120 75 -122 -2 -3 -40 13 -84 36 -212 108 -534 102
-700 -12 -24 -16 -49 -27 -54 -24 -6 3 -10 44 -10 91 l0 84 121 0 c164 0 338
17 456 45 54 12 102 22 107 21 5 -1 45 -55 89 -119z m1917 65 c29 -15 35 -23
33 -46 -1 -16 -9 -36 -18 -46 -8 -9 -15 -30 -15 -47 0 -16 -9 -41 -20 -54 -27
-31 -24 -84 5 -84 13 0 21 8 23 21 2 12 12 30 23 40 10 9 19 30 19 45 0 35 40
119 56 119 25 0 51 -50 58 -108 6 -52 3 -66 -24 -123 -29 -62 -28 -88 3 -76
26 10 77 117 77 160 l0 40 21 -19 c12 -10 32 -38 46 -62 22 -38 24 -46 13 -67
-8 -14 -25 -26 -46 -30 -22 -4 -43 -18 -60 -40 -21 -28 -33 -35 -60 -35 -47 0
-81 -18 -94 -51 -24 -57 12 -81 42 -28 17 29 20 30 62 24 43 -7 44 -6 75 39
28 40 37 46 66 46 19 0 35 -2 35 -5 0 -3 -9 -23 -19 -43 -10 -20 -24 -56 -30
-79 -11 -40 -13 -42 -37 -33 -54 21 -138 2 -132 -29 3 -12 14 -15 49 -13 24 2
57 -1 71 -7 25 -9 26 -13 17 -38 -5 -15 -18 -39 -28 -52 l-19 -25 -28 33 c-48
57 -124 76 -124 31 0 -12 10 -21 31 -25 35 -8 92 -60 86 -78 -2 -7 -41 -39
-88 -72 l-84 -60 -108 -3 c-97 -3 -111 -2 -130 16 -32 29 -62 42 -96 42 -40 0
-142 73 -169 120 -31 54 -42 103 -26 118 7 6 16 12 19 12 3 0 21 15 41 34 24
22 35 40 31 50 -10 25 -33 19 -68 -19 -19 -19 -37 -35 -42 -35 -9 0 -4 158 7
205 9 36 59 144 67 144 3 1 11 -10 17 -24 6 -14 18 -25 27 -25 10 0 15 -10 15
-28 0 -39 36 -56 82 -40 48 16 60 29 44 51 -11 14 -19 16 -40 7 -24 -9 -28 -7
-37 17 -5 14 -17 31 -25 38 -11 8 -14 25 -12 60 3 49 4 51 58 82 30 18 58 33
63 33 5 0 7 -30 6 -67 -3 -63 -2 -68 16 -65 29 5 45 31 45 73 0 28 6 41 25 53
23 15 25 15 25 1 0 -21 35 -11 73 21 34 28 59 29 107 6z m-3279 -210 c-3 -118
-3 -122 17 -122 11 0 31 4 44 9 24 9 26 14 64 149 5 19 62 15 73 -5 5 -10 12
-50 16 -90 4 -40 13 -77 20 -83 19 -16 42 -2 52 33 7 25 15 33 36 35 21 3 29
-2 37 -23 5 -14 10 -39 10 -54 0 -34 19 -52 47 -45 15 4 24 -2 36 -28 36 -77
58 -217 41 -262 -8 -21 -52 -20 -76 1 -15 13 -23 14 -44 5 -37 -18 -64 -15
-83 9 -15 18 -20 19 -44 8 -15 -7 -27 -18 -27 -25 0 -7 -11 -26 -24 -41 -33
-37 -59 -23 -67 35 -10 78 -39 70 -57 -16 -14 -68 -32 -91 -52 -67 -7 8 -25
15 -41 15 l-29 0 0 183 c0 176 15 453 26 490 3 10 11 16 17 14 9 -3 11 -39 8
-125z m1109 -56 c81 -15 227 -102 304 -181 59 -60 149 -187 162 -228 6 -18
-10 -38 -101 -124 -60 -57 -115 -103 -122 -103 -9 0 -13 14 -13 44 0 43 2 45
53 74 30 17 72 35 94 41 50 14 56 27 34 77 -27 61 -135 153 -243 207 -88 45
-98 47 -198 53 -108 6 -217 -8 -306 -40 -23 -8 -67 -17 -98 -21 l-56 -7 0 50
c0 45 2 50 20 45 11 -3 20 -1 20 5 0 12 102 77 165 105 24 11 69 19 113 21 39
2 75 6 78 9 4 3 18 0 33 -7 14 -7 42 -16 61 -20z m-235 -250 c10 -25 27 -54
40 -66 20 -19 28 -20 78 -12 50 8 59 7 74 -11 29 -32 118 -19 189 28 47 31 60
36 78 27 26 -12 146 -120 146 -132 0 -4 -12 -11 -27 -14 -16 -4 -57 -22 -93
-41 -85 -44 -167 -59 -284 -53 -97 5 -155 27 -198 74 -23 26 -84 152 -92 190
-6 29 -4 33 21 42 45 17 50 14 68 -32z m350 3 c11 -33 -4 -48 -46 -44 -47 5
-79 21 -79 40 0 18 16 23 73 21 34 -1 49 -6 52 -17z m-470 -62 c13 -38 31 -80
40 -94 19 -28 13 -38 -27 -48 -26 -7 -28 -4 -42 47 -30 106 -32 175 -5 166 6
-2 21 -34 34 -71z m105 -192 c10 -12 8 -21 -10 -50 -25 -40 -38 -36 -66 16
-18 35 -18 37 4 42 35 9 60 7 72 -8z m76 -55 c5 -5 26 -10 47 -12 20 -1 36 -5
35 -8 -2 -3 -11 -26 -22 -53 -10 -26 -25 -47 -33 -47 -23 0 -93 40 -93 53 0
16 38 77 48 77 4 0 12 -4 18 -10z m354 -64 c0 -51 -1 -54 -29 -59 -16 -3 -40
-9 -55 -13 -23 -5 -26 -3 -25 17 1 52 25 94 55 100 54 12 54 12 54 -45z m-140
33 c0 -4 -5 -30 -12 -58 l-11 -51 -49 0 c-37 0 -48 4 -48 16 0 20 17 53 41 79
17 19 79 30 79 14z"/>
<path d="M2221 2174 c-21 -15 -23 -22 -18 -71 9 -84 51 -152 118 -186 43 -23
63 -27 98 -24 36 4 52 0 81 -19 65 -43 187 -49 218 -11 6 7 12 37 14 67 2 29
8 55 13 57 6 1 26 -11 45 -29 44 -38 106 -68 145 -68 68 0 129 68 123 137 -6
69 -70 71 -76 2 -2 -19 -11 -42 -19 -51 -30 -34 -66 -22 -146 49 -41 36 -72
41 -116 18 -33 -17 -44 -49 -35 -105 l7 -40 -42 0 c-60 0 -111 30 -177 105
-32 36 -61 65 -65 65 -4 0 -14 -7 -23 -15 -16 -17 -12 -39 12 -68 22 -25 9
-31 -28 -12 -46 24 -70 70 -70 136 0 48 -12 79 -30 79 -3 0 -16 -7 -29 -16z"/>
<path d="M2445 1493 c-53 -11 -80 -31 -122 -87 -26 -34 -59 -76 -75 -94 -37
-43 -35 -60 6 -77 54 -23 96 -64 121 -120 27 -62 62 -97 133 -132 72 -35 250
-44 366 -19 107 24 225 85 275 143 23 25 41 49 41 54 0 4 16 17 35 29 28 17
43 20 81 14 54 -8 67 4 52 46 -8 25 -14 28 -76 32 -66 5 -138 37 -401 173 -46
24 -117 30 -193 16 -56 -11 -69 -10 -122 9 -58 20 -81 22 -121 13z m518 -252
c21 -8 26 -19 32 -67 5 -45 4 -60 -9 -72 -13 -14 -21 -14 -47 -5 -27 11 -39 9
-81 -9 -27 -11 -53 -29 -59 -39 -14 -26 -41 -24 -70 7 -20 21 -30 24 -57 19
-49 -9 -62 7 -62 74 0 77 15 96 66 86 43 -8 49 -8 147 -2 37 2 70 7 74 11 9 9
38 8 66 -3z m-405 -10 c9 -5 12 -26 10 -67 -3 -56 -4 -59 -30 -62 -23 -3 -30
2 -38 24 -13 34 -3 91 19 104 20 12 23 12 39 1z"/>
<path d="M3635 3424 c-81 -42 -119 -114 -113 -211 4 -63 6 -68 47 -104 23 -21
55 -41 71 -44 17 -4 32 -11 35 -16 11 -17 72 -9 119 16 26 14 54 25 62 25 24
0 54 78 54 143 0 63 -21 116 -62 154 -54 51 -154 68 -213 37z m75 -79 c0 -25
-3 -45 -7 -44 -5 0 -19 14 -32 31 -24 30 -24 31 -6 44 34 25 45 17 45 -31z
m104 4 c35 -28 33 -47 -9 -65 -19 -7 -37 -14 -40 -14 -3 0 -5 23 -5 50 0 57
11 63 54 29z m-144 -91 c0 -11 -88 -10 -95 2 -3 5 1 24 10 41 l17 31 34 -33
c19 -18 34 -37 34 -41z m187 -54 c-2 -25 -12 -53 -20 -62 -15 -14 -18 -13 -37
9 -45 53 -45 58 2 79 24 10 47 19 52 19 5 1 6 -20 3 -45z m-201 -7 c8 -7 -34
-67 -46 -67 -13 0 -42 58 -35 69 5 10 72 8 81 -2z m99 -63 c34 -44 24 -57 -40
-57 -67 0 -76 15 -35 58 19 19 37 35 41 35 4 0 19 -16 34 -36z"/>
<path d="M3374 3376 c-9 -23 4 -66 22 -73 25 -9 36 11 27 48 -10 36 -39 51
-49 25z"/>
<path d="M1768 3223 c7 -3 16 -2 19 1 4 3 -2 6 -13 5 -11 0 -14 -3 -6 -6z"/>
</g>
</svg>
